<svg width="57" height="63" viewBox="0 0 57 63" fill="none" xmlns="http://www.w3.org/2000/svg">
<path d="M31.2204 5.66667C42.2137 5.66667 51.0537 14.5633 51.0537 25.5C51.0537 33.4333 46.4354 40.205 39.7204 43.3783V56.6667H19.8871V48.1667H17.0537C13.9087 48.1667 11.3871 45.645 11.3871 42.5V34H7.13706C5.94706 34 5.26706 32.5833 5.94706 31.705L11.3871 24.5367C11.6367 19.446 13.8357 14.6466 17.5282 11.1334C21.2208 7.62026 26.1236 5.66273 31.2204 5.66667ZM31.2204 0C18.2154 0 7.44872 9.69 5.89039 22.3833L1.47039 28.3333H1.38539L1.32872 28.4183C-0.22961 30.5717 -0.427944 33.405 0.79039 35.7567C1.81039 37.7117 3.62372 39.0717 5.72039 39.4967V42.5C5.72039 47.7417 9.34706 52.19 14.2204 53.465V62.3333H45.3871V46.75C52.4704 42.0183 56.7204 34.17 56.7204 25.5C56.7204 11.4183 45.2737 0 31.2204 0ZM43.4887 23.5167L37.9354 24.9617L42.0154 29.0983C43.0071 30.0617 43.0071 31.705 42.0154 32.6967C41.0237 33.6883 39.3804 33.6883 38.4171 32.6967L34.3087 28.6167L32.8354 34.17C32.4954 35.5583 31.1071 36.3233 29.8037 35.9833C29.4738 35.9007 29.1635 35.7536 28.8907 35.5505C28.6179 35.3474 28.388 35.0924 28.2142 34.8C28.0404 34.5077 27.9261 34.1839 27.878 33.8472C27.8298 33.5105 27.8488 33.1677 27.9337 32.8383L29.4354 27.285L23.8821 28.7867C23.5527 28.8716 23.2099 28.8906 22.8732 28.8424C22.5365 28.7943 22.2127 28.68 21.9204 28.5062C21.628 28.3324 21.373 28.1025 21.1699 27.8297C20.9668 27.5569 20.8197 27.2466 20.7371 26.9167C20.3971 25.6417 21.1904 24.225 22.5504 23.885L28.1037 22.4117L24.0237 18.3033C23.5975 17.8165 23.3722 17.1858 23.3937 16.5391C23.4151 15.8924 23.6816 15.278 24.1391 14.8204C24.5967 14.3629 25.2111 14.0964 25.8578 14.0749C26.5045 14.0535 27.1352 14.2787 27.6221 14.705L31.7587 18.785L33.2037 13.2317C33.5437 11.8433 34.9604 11.05 36.2921 11.4183C37.6804 11.7867 38.4737 13.175 38.1054 14.535L36.6037 20.1167L42.1854 18.615C43.5454 18.2467 44.9337 19.04 45.3021 20.4283C45.6704 21.76 44.8771 23.1767 43.4887 23.5167Z" fill="#0D5044"/>
</svg>
