<svg width="45" height="59" viewBox="0 0 45 59" fill="none" xmlns="http://www.w3.org/2000/svg">
<path d="M39.375 19.6667H36.5625V14.0476C36.5625 6.29333 30.2625 0 22.5 0C14.7375 0 8.4375 6.29333 8.4375 14.0476V19.6667H5.625C2.53125 19.6667 0 22.1952 0 25.2857V53.381C0 56.4714 2.53125 59 5.625 59H39.375C42.4688 59 45 56.4714 45 53.381V25.2857C45 22.1952 42.4688 19.6667 39.375 19.6667ZM14.0625 14.0476C14.0625 9.38381 17.8312 5.61905 22.5 5.61905C27.1688 5.61905 30.9375 9.38381 30.9375 14.0476V19.6667H14.0625V14.0476ZM39.375 53.381H5.625V25.2857H39.375V53.381ZM22.5 44.9524C25.5938 44.9524 28.125 42.4238 28.125 39.3333C28.125 36.2429 25.5938 33.7143 22.5 33.7143C19.4062 33.7143 16.875 36.2429 16.875 39.3333C16.875 42.4238 19.4062 44.9524 22.5 44.9524Z" fill="#0D5044"/>
</svg>
