<svg width="101" height="101" viewBox="0 0 101 101" fill="none" xmlns="http://www.w3.org/2000/svg">
<path d="M43.5283 2.80645C45.2269 1.11007 47.4996 0.111894 49.898 0.00885197C52.2964 -0.0941902 54.6463 0.705385 56.4841 2.24983L57.0983 2.81125L66.2154 11.9235H79.104C81.5244 11.9239 83.8552 12.8389 85.6295 14.4851C87.4038 16.1313 88.4906 18.3871 88.6721 20.8006L88.7009 21.5204V34.409L97.818 43.5261C99.5157 45.2249 100.515 47.4986 100.618 49.8981C100.721 52.2976 99.9204 54.6486 98.3746 56.4867L97.8132 57.0961L88.6961 66.2132V79.1018C88.6969 81.523 87.7825 83.855 86.1362 85.6303C84.4899 87.4057 82.2333 88.4931 79.819 88.6747L79.104 88.6987H66.2202L57.1031 97.8158C55.4043 99.5135 53.1306 100.513 50.7311 100.616C48.3316 100.719 45.9806 99.9182 44.1425 98.3724L43.5331 97.8158L34.416 88.6987H21.5226C19.1014 88.6995 16.7694 87.7851 14.9941 86.1388C13.2187 84.4925 12.1313 82.2359 11.9497 79.8216L11.9257 79.1018V66.2132L2.80864 57.0961C1.11092 55.3973 0.111898 53.1236 0.00884544 50.7241C-0.0942068 48.3246 0.706201 45.9736 2.25202 44.1355L2.80864 43.5261L11.9257 34.409V21.5204C11.9261 19.1 12.8411 16.7692 14.4873 14.9949C16.1335 13.2206 18.3893 12.1338 20.8028 11.9523L21.5226 11.9235H34.4112L43.5283 2.80645ZM50.3133 9.60105L41.1962 18.7181C39.6023 20.3095 37.4995 21.2896 35.2558 21.4868L34.4112 21.5204H21.5226V34.409C21.5232 36.6638 20.7298 38.8468 19.2817 40.5751L18.7107 41.1989L9.59365 50.3159L18.7107 59.4282C20.3039 61.0214 21.2857 63.1243 21.4842 65.3687L21.5226 66.2132V79.1018H34.4112C36.666 79.1012 38.849 79.8946 40.5772 81.3427L41.201 81.9137L50.3133 91.0308L59.4304 81.9137C61.0236 80.3205 63.1265 79.3387 65.3708 79.1402L66.2154 79.1018H79.104V66.2132C79.1034 63.9584 79.8968 61.7754 81.3449 60.0472L81.9159 59.4234L91.033 50.3111L81.9159 41.1941C80.3227 39.6009 79.3409 37.4979 79.1424 35.2536L79.104 34.409V21.5204H66.2154C63.9606 21.521 61.7776 20.7276 60.0494 19.2795L59.4256 18.7085L50.3085 9.59146L50.3133 9.60105ZM65.0925 35.839C65.956 34.9784 67.1148 34.4788 68.3333 34.4415C69.5519 34.4043 70.7389 34.8323 71.6534 35.6386C72.5678 36.4449 73.141 37.5691 73.2566 38.7827C73.3722 39.9963 73.0215 41.2085 72.2758 42.1729L71.8727 42.624L48.4563 66.0404C47.5421 66.9559 46.3235 67.5036 45.0319 67.5797C43.7404 67.6558 42.4659 67.2549 41.4506 66.4531L40.9899 66.0452L29.4544 54.5098C28.5847 53.6482 28.0771 52.4869 28.0356 51.2634C27.9941 50.0399 28.4218 48.8468 29.2311 47.9283C30.0405 47.0098 31.1703 46.4354 32.3893 46.3226C33.6083 46.2099 34.8243 46.5673 35.7884 47.3217L36.2394 47.7199L44.7231 56.2036L65.0925 35.839Z" fill="#107966"/>
</svg>
