<svg width="83" height="98" viewBox="0 0 83 98" fill="none" xmlns="http://www.w3.org/2000/svg">
<path d="M44.4897 0.318047C42.3878 -0.106016 40.2306 -0.106016 38.1287 0.318047L3.55844 7.23211C1.49344 7.63773 0 9.46305 0 11.5649C0 13.464 1.19844 15.1234 2.95 15.7318V29.2649L0.0553131 43.7568C0.0184381 43.9227 0 44.1071 0 44.2915C0 45.7665 1.19844 46.9834 2.69187 46.9834H9.12656C10.6016 46.9834 11.8184 45.7849 11.8184 44.2915C11.8184 44.1071 11.8 43.9412 11.7631 43.7568L8.85 29.2649V16.9671L17.7 18.7371V29.2649C17.7 42.3002 28.2647 52.8649 41.3 52.8649C54.3353 52.8649 64.9 42.3002 64.9 29.2649V18.7371L79.0416 15.9162C81.1066 15.4921 82.6 13.6668 82.6 11.5649C82.6 9.46305 81.1066 7.63773 79.0416 7.23211L44.4897 0.318047ZM41.3 44.0149C33.1506 44.0149 26.55 37.4143 26.55 29.2649H56.05C56.05 37.4143 49.4494 44.0149 41.3 44.0149ZM22.1434 61.7334C10.8228 66.9327 2.95 78.364 2.95 91.639C2.95 94.6627 5.40219 97.1149 8.42594 97.1149H36.875V70.1962L26.2919 62.268C25.0934 61.3646 23.4894 61.1249 22.125 61.7518L22.1434 61.7334ZM45.725 97.1149H74.1741C77.1978 97.1149 79.65 94.6627 79.65 91.639C79.65 78.364 71.7772 66.9327 60.4566 61.7518C59.0922 61.1249 57.4881 61.3646 56.2897 62.268L45.7066 70.1962V97.1149H45.725Z" fill="#107966"/>
</svg>
