<svg width="63" height="63" viewBox="0 0 63 63" fill="none" xmlns="http://www.w3.org/2000/svg">
<path d="M31.5 0C14.1435 0 0 14.1435 0 31.5C0 48.8565 14.1435 63 31.5 63C48.8565 63 63 48.8565 63 31.5C63 14.1435 48.8565 0 31.5 0ZM31.5 56.7C30.429 56.7 29.3895 56.6055 28.35 56.4795V50.4L25.2 47.25L18.9 40.95V34.65L12.6 28.35L7.6545 23.4045C11.025 13.482 20.4435 6.3 31.5 6.3C34.839 6.3 38.0205 6.9615 40.95 8.1585V9.45C40.95 12.915 38.115 15.75 34.65 15.75H31.5V18.9C31.5 22.365 28.665 25.2 25.2 25.2V34.65H37.8C41.265 34.65 44.1 37.485 44.1 40.95V44.1C46.2735 44.1 49.392 45.2025 51.4395 46.8405C49.0968 49.9054 46.0793 52.3892 42.6213 54.0991C39.1633 55.809 35.3577 56.699 31.5 56.7Z" fill="#0D5044"/>
</svg>
