<svg width="67" height="62" viewBox="0 0 67 62" fill="none" xmlns="http://www.w3.org/2000/svg">
<path d="M33.6667 51.8333L33.3333 52.1667L32.9667 51.8333C17.1333 37.4667 6.66667 27.9667 6.66667 18.3333C6.66667 11.6667 11.6667 6.66667 18.3333 6.66667C23.4667 6.66667 28.4667 10 30.2333 14.5333H36.4333C38.2 10 43.2 6.66667 48.3333 6.66667C55 6.66667 60 11.6667 60 18.3333C60 27.9667 49.5333 37.4667 33.6667 51.8333ZM48.3333 0C42.5333 0 36.9667 2.7 33.3333 6.93333C29.7 2.7 24.1333 0 18.3333 0C8.06667 0 0 8.03333 0 18.3333C0 30.9 11.3333 41.2 28.5 56.7667L33.3333 61.1667L38.1667 56.7667C55.3333 41.2 66.6667 30.9 66.6667 18.3333C66.6667 8.03333 58.6 0 48.3333 0Z" fill="#0D5044"/>
</svg>
