<svg width="73" height="67" viewBox="0 0 73 67" fill="none" xmlns="http://www.w3.org/2000/svg">
<path d="M36.865 56.7766L36.5 57.1417L36.0985 56.7766C18.761 41.0398 7.3 30.6338 7.3 20.0817C7.3 12.7793 12.775 7.30245 20.075 7.30245C25.696 7.30245 31.171 10.9537 33.1055 15.9193H39.8945C41.829 10.9537 47.304 7.30245 52.925 7.30245C60.225 7.30245 65.7 12.7793 65.7 20.0817C65.7 30.6338 54.239 41.0398 36.865 56.7766ZM52.925 0C46.574 0 40.4785 2.95749 36.5 7.59455C32.5215 2.95749 26.426 0 20.075 0C8.833 0 0 8.79945 0 20.0817C0 33.8469 12.41 45.1292 31.2075 62.1804L36.5 67L41.7925 62.1804C60.59 45.1292 73 33.8469 73 20.0817C73 8.79945 64.167 0 52.925 0Z" fill="#0D5044"/>
</svg>
