<svg width="77" height="64" viewBox="0 0 77 64" fill="none" xmlns="http://www.w3.org/2000/svg">
<path fill-rule="evenodd" clip-rule="evenodd" d="M46.5611 62.3112C45.7123 62.9382 44.7909 63.4582 43.7778 63.7258C40.9257 64.4904 37.8097 63.3511 35.0876 62.5865C16.8394 57.4519 4.6166 49.4117 1.11072 37.4145C-1.68787 27.8335 1.00367 18.2372 6.922 12.273C12.4045 6.74847 20.5326 4.50807 28.8711 8.09806C34.3 0.818665 42.4626 -1.30704 49.9714 0.738379C58.0766 2.94437 65.203 9.91027 67.5696 19.6059C68.0335 21.5073 68.2667 23.4432 68.2693 25.4134C69.248 25.9155 70.1656 26.5272 71.022 27.2485C75.4454 30.9915 77.8082 37.3495 76.4892 43.9598C74.807 52.3938 66.9885 58.316 55.8056 62.5444C53.8902 63.2708 51.795 64.1693 49.7037 63.8023C48.5415 63.5958 47.5016 62.9994 46.5611 62.3112ZM8.45128 35.2696C6.40587 28.2617 8.46275 21.5787 12.351 17.6599C16.0824 13.8979 21.6146 12.4986 27.7317 16.0771C29.8689 17.3273 32.6255 16.5856 33.8489 14.4408C37.3586 8.28158 42.8487 6.72553 47.9604 8.11718C53.2899 9.57 58.413 14.3261 60.1411 21.4181C60.3527 22.2694 60.4929 23.1424 60.5617 24.037C59.1609 24.2162 57.7949 24.6041 56.5091 25.1878C52.4029 21.1849 46.9663 20.3973 42.172 22.1637C36.7354 24.1632 32.3387 29.3322 31.3141 35.996C30.2704 42.8205 33.4933 49.4729 39.4919 55.8691C38.735 55.6779 37.9512 55.4485 37.1598 55.2268C19.4545 50.2452 10.7796 43.241 8.45128 35.2696ZM38.8764 37.1545C39.4881 33.1401 42.0841 30.3453 44.8139 29.336C47.3372 28.4108 50.1396 28.8963 52.2691 31.974C52.5866 32.4326 52.9919 32.8237 53.4615 33.1247C53.931 33.4257 54.4556 33.6307 55.0049 33.7277C55.5541 33.8248 56.1172 33.812 56.6615 33.6902C57.2058 33.5683 57.7205 33.3398 58.176 33.0178C61.2346 30.85 64.0331 31.3547 66.0824 33.0866C68.3075 34.9676 69.7832 38.485 68.988 42.4649C68.1278 46.7851 63.7579 51.3654 53.1026 55.3912C52.4259 55.6474 51.753 55.9226 51.0572 56.1253C50.4722 55.6932 49.9331 55.2077 49.3826 54.7374C40.7498 47.3089 38.2073 41.5091 38.8764 37.1507V37.1545Z" fill="#0D5044"/>
</svg>
