<svg width="73" height="69" viewBox="0 0 73 69" fill="none" xmlns="http://www.w3.org/2000/svg">
<path fill-rule="evenodd" clip-rule="evenodd" d="M66.8274 6.42364C71.7982 11.5966 73.7667 18.7107 72.7331 25.421H65.3061C66.4208 20.5587 65.169 15.208 61.5509 11.4429C56.1958 5.87005 47.6553 5.87005 42.3003 11.4429L36.5 17.4791L30.6996 11.4427C25.3445 5.86988 16.804 5.86988 11.449 11.4427C7.83084 15.208 6.57912 20.5587 7.6938 25.421H0.266952C-0.766798 18.7107 1.20181 11.5964 6.17243 6.42347C13.8085 -1.52289 25.8467 -2.09657 34.1181 4.70295C34.7706 5.23994 35.391 5.81443 35.9761 6.42347L36.5 6.96871L37.0237 6.42364C37.6178 5.80553 38.2383 5.23202 38.8818 4.70295C47.1534 -2.09657 59.1914 -1.52306 66.8274 6.42364ZM54.3177 39.9474H64.4174L36.5 69L8.58263 39.9474H18.6821L36.5 58.4898L54.3177 39.9474ZM25.55 10.0375L15.9907 29.0527H4.4887e-05V36.3158H20.5058L25.55 26.2781L36.5 48.0678L42.4057 36.3158H73V29.0527H46.0558L41.975 20.9322L36.5 31.8235L25.55 10.0375Z" fill="#0D5044"/>
</svg>
