<svg width="44" height="55" viewBox="0 0 44 55" fill="none" xmlns="http://www.w3.org/2000/svg">
<path d="M22.0002 33C28.0667 33 33.0002 28.0665 33.0002 22C33.0002 15.9335 28.0667 11 22.0002 11C15.9337 11 11.0002 15.9335 11.0002 22C11.0002 28.0665 15.9337 33 22.0002 33ZM22.0002 16.5C25.0335 16.5 27.5002 18.9667 27.5002 22C27.5002 25.0332 25.0335 27.5 22.0002 27.5C18.967 27.5 16.5002 25.0332 16.5002 22C16.5002 18.9667 18.967 16.5 22.0002 16.5Z" fill="#107966"/>
<path d="M20.4052 54.4885C20.871 54.8201 21.4285 54.9983 22.0002 54.9983C22.572 54.9983 23.1295 54.8201 23.5952 54.4885C24.4312 53.8972 44.08 39.71 44.0002 22C44.0002 9.86975 34.1305 0 22.0002 0C9.86999 0 0.000242104 9.86975 0.000242104 21.9862C-0.0795079 39.71 19.5692 53.8972 20.4052 54.4885ZM22.0002 5.5C31.1 5.5 38.5002 12.9002 38.5002 22.0137C38.558 34.2182 26.4332 45.177 22.0002 48.7712C17.57 45.1742 5.44249 34.2127 5.50024 22C5.50024 12.9002 12.9005 5.5 22.0002 5.5Z" fill="#107966"/>
</svg>
