<svg width="408" height="30" viewBox="0 0 408 30" fill="none" xmlns="http://www.w3.org/2000/svg">
<path d="M22.435 22.085C21.245 23.8117 20.055 25.2234 18.865 26.32C17.6983 27.3934 16.4617 28.175 15.155 28.665C13.8717 29.155 12.4367 29.4 10.85 29.4C8.63334 29.4 6.70834 28.9567 5.075 28.07C3.44167 27.1834 2.18167 25.9234 1.295 24.29C0.43167 22.6567 3.74764e-06 20.7317 3.74764e-06 18.515C3.74764e-06 16.7417 0.29167 15.0384 0.875004 13.405C1.45834 11.7484 2.275 10.22 3.325 8.82005C4.375 7.39671 5.6 6.16005 7 5.11005C8.42334 4.03671 9.95167 3.20838 11.585 2.62505C13.2417 2.04171 14.9567 1.75005 16.73 1.75005C18.6667 1.75005 20.545 2.45005 22.365 3.85005L23.66 2.10005H25.305L23.625 11.235H21.875C21.7117 8.52838 21.21 6.63838 20.37 5.56505C19.53 4.46838 18.2817 3.92005 16.625 3.92005C15.085 3.92005 13.6617 4.29338 12.355 5.04005C11.0483 5.78671 9.89334 6.82505 8.89 8.15505C7.91 9.48505 7.14 11.0367 6.58 12.81C6.04334 14.5834 5.775 16.4967 5.775 18.55C5.775 24.1034 7.85167 26.88 12.005 26.88C13.825 26.88 15.47 26.425 16.94 25.515C18.41 24.605 19.8217 23.1817 21.175 21.245L22.435 22.085ZM30.8205 26.53C31.1472 26.53 31.5555 26.2967 32.0455 25.83C32.5355 25.34 33.0605 24.675 33.6205 23.835C34.1805 22.995 34.7288 22.0384 35.2655 20.965C35.8255 19.8684 36.3272 18.7134 36.7705 17.5L39.3605 10.5H44.0155L41.4255 18.515C40.9355 20.0317 40.5505 21.245 40.2705 22.155C39.9905 23.0417 39.7922 23.7417 39.6755 24.255C39.5588 24.745 39.5005 25.165 39.5005 25.515C39.5005 26.1217 39.6755 26.425 40.0255 26.425C40.3755 26.425 40.7605 26.2267 41.1805 25.83C41.6238 25.4334 42.0555 24.92 42.4755 24.29C42.9188 23.66 43.2805 22.9834 43.5605 22.26L44.8555 22.925C44.4355 23.9984 43.8522 25.0367 43.1055 26.04C42.3822 27.02 41.5772 27.825 40.6905 28.455C39.8272 29.085 38.9638 29.4 38.1005 29.4C37.3072 29.4 36.7705 29.1434 36.4905 28.63C36.2105 28.0934 36.0705 27.3584 36.0705 26.425C36.0705 26.0284 36.0822 25.6084 36.1055 25.165C36.1522 24.6984 36.2222 24.2434 36.3155 23.8L36.2105 23.695C35.3238 25.165 34.4605 26.32 33.6205 27.16C32.8038 27.9767 31.9872 28.56 31.1705 28.91C30.3772 29.2367 29.5605 29.4 28.7205 29.4C27.3905 29.4 26.4572 29.0967 25.9205 28.49C25.3838 27.86 25.1155 27.0784 25.1155 26.145C25.1155 25.2117 25.2905 24.1734 25.6405 23.03C26.0138 21.8634 26.4105 20.7434 26.8305 19.67C27.3672 18.34 27.7872 17.2784 28.0905 16.485C28.4172 15.6917 28.6505 15.0734 28.7905 14.63C28.9305 14.1867 29.0005 13.8484 29.0005 13.615C29.0005 13.5217 28.9772 13.44 28.9305 13.37C28.9072 13.2767 28.8255 13.23 28.6855 13.23C28.4055 13.23 27.9972 13.4867 27.4605 14C26.9238 14.5134 26.1888 15.3417 25.2555 16.485L24.1705 15.89C24.6372 14.9567 25.2555 14.0584 26.0255 13.195C26.7955 12.3084 27.6472 11.585 28.5805 11.025C29.5372 10.4417 30.5288 10.15 31.5555 10.15C32.3255 10.15 32.9322 10.3367 33.3755 10.71C33.8188 11.06 34.0405 11.5967 34.0405 12.32C34.0405 13.0434 33.8305 14.0584 33.4105 15.365C32.9905 16.6717 32.4188 18.2117 31.6955 19.985C31.2755 21.0117 30.9022 21.9567 30.5755 22.82C30.2722 23.66 30.1205 24.4534 30.1205 25.2C30.1205 25.6667 30.1905 26.005 30.3305 26.215C30.4705 26.425 30.6338 26.53 30.8205 26.53ZM50.1006 29.4C49.2373 29.4 48.5723 29.2134 48.1056 28.84C47.6389 28.4434 47.4056 27.825 47.4056 26.985C47.4056 26.3784 47.5106 25.7017 47.7206 24.955C47.9539 24.185 48.2806 23.1934 48.7006 21.98L50.2756 17.5C50.6023 16.5434 50.8239 15.8667 50.9406 15.47C51.0806 15.05 51.1506 14.6767 51.1506 14.35C51.1506 14.0467 51.1039 13.8367 51.0106 13.72C50.9406 13.58 50.8239 13.51 50.6606 13.51C50.3573 13.51 49.9956 13.7084 49.5756 14.105C49.1556 14.5017 48.7473 14.945 48.3506 15.435C47.9773 15.925 47.7206 16.2984 47.5806 16.555L46.3906 15.82C46.7173 15.2134 47.1723 14.5834 47.7556 13.93C48.3389 13.2534 48.9923 12.635 49.7156 12.075C50.4623 11.4917 51.2323 11.025 52.0256 10.675C52.8189 10.325 53.5773 10.15 54.3006 10.15C55.0239 10.15 55.5723 10.3367 55.9456 10.71C56.3423 11.0834 56.5406 11.655 56.5406 12.425C56.5406 12.8684 56.4589 13.3817 56.2956 13.965C56.1556 14.525 55.9223 15.2484 55.5956 16.135C55.2923 17.0217 54.8723 18.1884 54.3356 19.635L53.0406 23.17C53.0173 23.2634 52.9473 23.4617 52.8306 23.765C52.7139 24.045 52.5973 24.36 52.4806 24.71C52.3873 25.0367 52.3406 25.3167 52.3406 25.55C52.3406 25.76 52.3989 25.9467 52.5156 26.11C52.6323 26.2734 52.8189 26.355 53.0756 26.355C53.4023 26.355 53.7406 26.2267 54.0906 25.97C54.4639 25.7134 54.8139 25.3867 55.1406 24.99C55.4906 24.5934 55.8056 24.185 56.0856 23.765C56.3889 23.345 56.6339 22.9717 56.8206 22.645L58.0456 23.38C57.6956 24.0567 57.2523 24.7567 56.7156 25.48C56.2023 26.18 55.5956 26.8334 54.8956 27.44C54.2189 28.0234 53.4723 28.5017 52.6556 28.875C51.8389 29.225 50.9873 29.4 50.1006 29.4ZM56.1556 5.46005C55.4323 5.46005 54.8023 5.21505 54.2656 4.72505C53.7289 4.23505 53.4606 3.59338 53.4606 2.80005C53.4606 2.03005 53.7173 1.37671 54.2306 0.840047C54.7673 0.280047 55.4089 4.73261e-05 56.1556 4.73261e-05C56.9723 4.73261e-05 57.6373 0.280047 58.1506 0.840047C58.6639 1.37671 58.9206 2.01838 58.9206 2.76505C58.9206 3.51171 58.6406 4.15338 58.0806 4.69005C57.5439 5.20338 56.9023 5.46005 56.1556 5.46005ZM64.5474 29.4C63.6607 29.4 62.8207 29.1784 62.0274 28.735C61.2574 28.2684 60.6391 27.615 60.1724 26.775C59.7057 25.935 59.4724 24.9317 59.4724 23.765C59.4724 22.575 59.7057 21.35 60.1724 20.09C60.6391 18.8067 61.2691 17.5817 62.0624 16.415C62.8791 15.225 63.7891 14.1634 64.7924 13.23C65.8191 12.2734 66.8807 11.5267 67.9774 10.99C69.0741 10.43 70.1591 10.15 71.2324 10.15C72.0491 10.15 72.7141 10.3134 73.2274 10.64C73.7641 10.9667 74.1841 11.4334 74.4874 12.04L76.4474 5.00505C76.6807 4.18838 76.8207 3.64005 76.8674 3.36005C76.9374 3.08005 76.9724 2.85838 76.9724 2.69505C76.9724 2.25171 76.7624 1.96005 76.3424 1.82005C75.9457 1.65671 75.0474 1.57505 73.6474 1.57505L74.1024 4.73261e-05H82.3974L78.5474 14.07C77.9174 16.4034 77.3924 18.305 76.9724 19.775C76.5757 21.245 76.2841 22.4117 76.0974 23.275C75.9107 24.115 75.8174 24.78 75.8174 25.27C75.8174 25.7834 75.9107 26.145 76.0974 26.355C76.2841 26.565 76.4824 26.67 76.6924 26.67C77.1591 26.67 77.6724 26.2734 78.2324 25.48C78.7924 24.6867 79.3174 23.6484 79.8074 22.365L81.4874 22.68C80.6241 24.9667 79.6791 26.6584 78.6524 27.755C77.6491 28.8517 76.3891 29.4 74.8724 29.4C73.8224 29.4 73.0174 29.1317 72.4574 28.595C71.8974 28.0584 71.6174 27.2534 71.6174 26.18C71.6174 25.9934 71.6291 25.76 71.6524 25.48C71.6757 25.2 71.7224 24.9317 71.7924 24.675L71.5824 24.605C71.0924 25.585 70.4507 26.4367 69.6574 27.16C68.8641 27.8834 68.0241 28.4434 67.1374 28.84C66.2507 29.2134 65.3874 29.4 64.5474 29.4ZM66.0874 26.775C66.7174 26.775 67.3707 26.495 68.0474 25.935C68.7474 25.375 69.4124 24.64 70.0424 23.73C70.6957 22.82 71.2791 21.8284 71.7924 20.755C72.3057 19.6817 72.7141 18.6084 73.0174 17.535C73.3207 16.4617 73.4724 15.4934 73.4724 14.63C73.4724 13.86 73.3324 13.2884 73.0524 12.915C72.7957 12.5417 72.3757 12.355 71.7924 12.355C71.0924 12.355 70.3807 12.6117 69.6574 13.125C68.9574 13.6384 68.2807 14.3267 67.6274 15.19C66.9974 16.03 66.4257 16.975 65.9124 18.025C65.3991 19.0517 64.9907 20.09 64.6874 21.14C64.4074 22.1667 64.2674 23.1234 64.2674 24.01C64.2674 24.92 64.4307 25.6084 64.7574 26.075C65.0841 26.5417 65.5274 26.775 66.0874 26.775ZM86.8853 29.4C85.5086 29.4 84.412 28.945 83.5953 28.035C82.802 27.125 82.4053 25.8884 82.4053 24.325C82.4053 23.0417 82.6386 21.735 83.1053 20.405C83.572 19.0517 84.202 17.7684 84.9953 16.555C85.7886 15.3417 86.687 14.2567 87.6903 13.3C88.717 12.32 89.7786 11.55 90.8753 10.99C91.9953 10.43 93.092 10.15 94.1653 10.15C95.822 10.15 96.9653 10.92 97.5953 12.46L98.3303 10.5H102.635L100.64 15.855C100.314 16.7184 99.9987 17.64 99.6953 18.62C99.392 19.5767 99.112 20.51 98.8553 21.42C98.622 22.33 98.4353 23.1467 98.2953 23.87C98.1553 24.5934 98.0853 25.1417 98.0853 25.515C98.0853 26.1917 98.307 26.53 98.7503 26.53C98.9837 26.53 99.4153 26.18 100.045 25.48C100.699 24.78 101.387 23.8467 102.11 22.68L103.3 23.625C102.32 25.445 101.27 26.8684 100.15 27.895C99.0537 28.8984 97.782 29.4 96.3353 29.4C95.5653 29.4 94.912 29.2017 94.3753 28.805C93.862 28.385 93.6053 27.7084 93.6053 26.775C93.6053 26.565 93.617 26.32 93.6403 26.04C93.6637 25.7367 93.687 25.3634 93.7103 24.92L93.5703 24.885C93.1036 25.7484 92.497 26.5184 91.7503 27.195C91.027 27.8717 90.2336 28.4084 89.3703 28.805C88.5303 29.2017 87.702 29.4 86.8853 29.4ZM88.7403 26.6C89.3936 26.6 90.0587 26.32 90.7353 25.76C91.4353 25.1767 92.1003 24.43 92.7303 23.52C93.3836 22.5867 93.967 21.5717 94.4803 20.475C94.9936 19.355 95.402 18.2584 95.7053 17.185C96.0087 16.1117 96.1603 15.1434 96.1603 14.28C96.1603 13.6734 96.032 13.195 95.7753 12.845C95.5187 12.495 95.1687 12.32 94.7253 12.32C94.0486 12.32 93.3486 12.5767 92.6253 13.09C91.902 13.6034 91.2136 14.2917 90.5603 15.155C89.907 15.995 89.3236 16.94 88.8103 17.99C88.297 19.0167 87.8886 20.0667 87.5853 21.14C87.282 22.2134 87.1303 23.2167 87.1303 24.15C87.1303 24.8034 87.2703 25.375 87.5503 25.865C87.8536 26.355 88.2503 26.6 88.7403 26.6ZM109.562 29.4C108.675 29.4 107.835 29.1784 107.042 28.735C106.272 28.2684 105.654 27.615 105.187 26.775C104.72 25.935 104.487 24.9317 104.487 23.765C104.487 22.575 104.72 21.35 105.187 20.09C105.654 18.8067 106.284 17.5817 107.077 16.415C107.894 15.225 108.804 14.1634 109.807 13.23C110.834 12.2734 111.895 11.5267 112.992 10.99C114.089 10.43 115.174 10.15 116.247 10.15C117.064 10.15 117.729 10.3134 118.242 10.64C118.779 10.9667 119.199 11.4334 119.502 12.04L121.462 5.00505C121.695 4.18838 121.835 3.64005 121.882 3.36005C121.952 3.08005 121.987 2.85838 121.987 2.69505C121.987 2.25171 121.777 1.96005 121.357 1.82005C120.96 1.65671 120.062 1.57505 118.662 1.57505L119.117 4.73261e-05H127.412L123.562 14.07C122.932 16.4034 122.407 18.305 121.987 19.775C121.59 21.245 121.299 22.4117 121.112 23.275C120.925 24.115 120.832 24.78 120.832 25.27C120.832 25.7834 120.925 26.145 121.112 26.355C121.299 26.565 121.497 26.67 121.707 26.67C122.174 26.67 122.687 26.2734 123.247 25.48C123.807 24.6867 124.332 23.6484 124.822 22.365L126.502 22.68C125.639 24.9667 124.694 26.6584 123.667 27.755C122.664 28.8517 121.404 29.4 119.887 29.4C118.837 29.4 118.032 29.1317 117.472 28.595C116.912 28.0584 116.632 27.2534 116.632 26.18C116.632 25.9934 116.644 25.76 116.667 25.48C116.69 25.2 116.737 24.9317 116.807 24.675L116.597 24.605C116.107 25.585 115.465 26.4367 114.672 27.16C113.879 27.8834 113.039 28.4434 112.152 28.84C111.265 29.2134 110.402 29.4 109.562 29.4ZM111.102 26.775C111.732 26.775 112.385 26.495 113.062 25.935C113.762 25.375 114.427 24.64 115.057 23.73C115.71 22.82 116.294 21.8284 116.807 20.755C117.32 19.6817 117.729 18.6084 118.032 17.535C118.335 16.4617 118.487 15.4934 118.487 14.63C118.487 13.86 118.347 13.2884 118.067 12.915C117.81 12.5417 117.39 12.355 116.807 12.355C116.107 12.355 115.395 12.6117 114.672 13.125C113.972 13.6384 113.295 14.3267 112.642 15.19C112.012 16.03 111.44 16.975 110.927 18.025C110.414 19.0517 110.005 20.09 109.702 21.14C109.422 22.1667 109.282 23.1234 109.282 24.01C109.282 24.92 109.445 25.6084 109.772 26.075C110.099 26.5417 110.542 26.775 111.102 26.775ZM134.7 29.4C133.463 29.4 132.332 29.12 131.305 28.56C130.278 28 129.462 27.195 128.855 26.145C128.248 25.095 127.945 23.835 127.945 22.365C127.945 20.8484 128.248 19.3667 128.855 17.92C129.485 16.45 130.325 15.1317 131.375 13.965C132.425 12.7984 133.615 11.8767 134.945 11.2C136.275 10.5 137.64 10.15 139.04 10.15C140.37 10.15 141.548 10.43 142.575 10.99C143.602 11.55 144.407 12.3317 144.99 13.335C145.573 14.3384 145.865 15.5167 145.865 16.87C145.865 18.34 145.55 19.8217 144.92 21.315C144.29 22.785 143.438 24.1267 142.365 25.34C141.292 26.5534 140.09 27.5334 138.76 28.28C137.453 29.0267 136.1 29.4 134.7 29.4ZM134.91 27.3C135.517 27.3 136.112 27.0434 136.695 26.53C137.278 26.0167 137.838 25.3284 138.375 24.465C138.912 23.6017 139.378 22.645 139.775 21.595C140.195 20.5217 140.522 19.425 140.755 18.305C140.988 17.1617 141.105 16.0767 141.105 15.05C141.105 13.9534 140.918 13.195 140.545 12.775C140.172 12.355 139.67 12.145 139.04 12.145C138.433 12.145 137.838 12.4017 137.255 12.915C136.695 13.405 136.158 14.07 135.645 14.91C135.132 15.7267 134.677 16.66 134.28 17.71C133.883 18.7367 133.568 19.81 133.335 20.93C133.125 22.0267 133.02 23.0767 133.02 24.08C133.02 25.2467 133.195 26.075 133.545 26.565C133.918 27.055 134.373 27.3 134.91 27.3ZM158.506 15.54C158.506 14.49 158.798 13.5684 159.381 12.775C159.964 11.9584 160.758 11.3167 161.761 10.85C162.764 10.3834 163.884 10.15 165.121 10.15C166.591 10.15 167.711 10.4767 168.481 11.13C169.251 11.76 169.636 12.5184 169.636 13.405C169.636 13.9417 169.473 14.3617 169.146 14.665C168.843 14.945 168.458 15.085 167.991 15.085C167.431 15.085 167.023 14.9334 166.766 14.63C166.533 14.3034 166.346 13.9417 166.206 13.545C166.066 13.1484 165.903 12.7984 165.716 12.495C165.553 12.1684 165.261 12.005 164.841 12.005C164.351 12.005 163.943 12.2267 163.616 12.67C163.313 13.09 163.161 13.6034 163.161 14.21C163.161 14.7934 163.301 15.365 163.581 15.925C163.884 16.485 164.246 17.045 164.666 17.605C165.109 18.1417 165.541 18.7134 165.961 19.32C166.404 19.9267 166.766 20.5684 167.046 21.245C167.349 21.8984 167.501 22.61 167.501 23.38C167.501 24.57 167.151 25.62 166.451 26.53C165.751 27.44 164.841 28.1517 163.721 28.665C162.601 29.155 161.423 29.4 160.186 29.4C158.716 29.4 157.538 29.0734 156.651 28.42C155.788 27.7434 155.356 26.8567 155.356 25.76C155.356 25.0834 155.531 24.5584 155.881 24.185C156.231 23.7884 156.686 23.59 157.246 23.59C158.296 23.59 158.891 24.2667 159.031 25.62C159.101 26.3667 159.241 26.8684 159.451 27.125C159.684 27.3817 160.023 27.51 160.466 27.51C161.259 27.51 161.878 27.265 162.321 26.775C162.764 26.2617 162.986 25.5734 162.986 24.71C162.986 24.01 162.834 23.3684 162.531 22.785C162.228 22.1784 161.854 21.6067 161.411 21.07C160.968 20.5334 160.524 19.985 160.081 19.425C159.638 18.865 159.264 18.27 158.961 17.64C158.658 17.01 158.506 16.31 158.506 15.54ZM176.267 29.4C174.447 29.4 173.012 28.8984 171.962 27.895C170.935 26.8684 170.422 25.4334 170.422 23.59C170.422 22.3067 170.644 21.035 171.087 19.775C171.554 18.4917 172.184 17.2784 172.977 16.135C173.77 14.9684 174.68 13.9417 175.707 13.055C176.734 12.145 177.807 11.4334 178.927 10.92C180.07 10.4067 181.214 10.15 182.357 10.15C183.664 10.15 184.737 10.4534 185.577 11.06C186.44 11.6434 186.872 12.425 186.872 13.405C186.872 14.245 186.569 15.0967 185.962 15.96C185.355 16.8 184.515 17.605 183.442 18.375C182.392 19.145 181.179 19.845 179.802 20.475C178.425 21.0817 176.967 21.5834 175.427 21.98C175.38 22.2834 175.334 22.5984 175.287 22.925C175.264 23.2284 175.252 23.52 175.252 23.8C175.252 24.8734 175.45 25.7017 175.847 26.285C176.267 26.845 176.85 27.125 177.597 27.125C178.414 27.125 179.3 26.775 180.257 26.075C181.237 25.3517 182.1 24.3834 182.847 23.17L184.317 24.22C183.337 25.9 182.159 27.1834 180.782 28.07C179.405 28.9567 177.9 29.4 176.267 29.4ZM175.917 20.02C177.247 19.6234 178.425 19.0984 179.452 18.445C180.479 17.7917 181.284 17.0567 181.867 16.24C182.474 15.4 182.777 14.525 182.777 13.615C182.777 12.635 182.404 12.145 181.657 12.145C181.097 12.145 180.537 12.39 179.977 12.88C179.417 13.3467 178.869 13.9767 178.332 14.77C177.819 15.54 177.352 16.3917 176.932 17.325C176.512 18.235 176.174 19.1334 175.917 20.02ZM210.513 19.285C210.863 18.305 211.154 17.4534 211.388 16.73C211.644 16.0067 211.843 15.3884 211.983 14.875C212.123 14.3384 212.193 13.895 212.193 13.545C212.193 12.9617 211.948 12.67 211.458 12.67C210.874 12.67 210.209 13.02 209.463 13.72C208.716 14.42 207.934 15.4817 207.118 16.905C206.791 17.4884 206.453 18.1534 206.103 18.9C205.753 19.6467 205.379 20.51 204.983 21.49C204.609 22.4467 204.189 23.555 203.723 24.815C203.256 26.0517 202.731 27.4634 202.148 29.05H197.423L199.698 22.015C200.281 20.2417 200.748 18.7834 201.098 17.64C201.471 16.4734 201.739 15.5517 201.903 14.875C202.089 14.1984 202.183 13.72 202.183 13.44C202.183 12.9734 201.961 12.74 201.518 12.74C201.074 12.74 200.596 12.9617 200.083 13.405C199.569 13.8484 199.044 14.4667 198.508 15.26C197.971 16.03 197.446 16.9167 196.933 17.92C196.443 18.9234 195.988 19.985 195.568 21.105L192.628 29.05H188.148L190.738 21.035C191.228 19.5417 191.624 18.2934 191.928 17.29C192.254 16.2867 192.499 15.4817 192.663 14.875C192.826 14.245 192.908 13.79 192.908 13.51C192.908 12.88 192.686 12.565 192.243 12.565C191.916 12.565 191.543 12.81 191.123 13.3C190.726 13.7667 190.318 14.3967 189.898 15.19C189.478 15.9834 189.081 16.87 188.708 17.85L187.308 17.185C188.964 12.495 191.088 10.15 193.678 10.15C194.424 10.15 194.949 10.36 195.253 10.78C195.579 11.2 195.743 11.9 195.743 12.88C195.743 14 195.544 15.0734 195.148 16.1L195.253 16.205C196.513 14.1284 197.773 12.6 199.033 11.62C200.316 10.64 201.658 10.15 203.058 10.15C204.154 10.15 204.983 10.4184 205.543 10.955C206.103 11.4917 206.383 12.2034 206.383 13.09C206.383 13.51 206.313 13.9417 206.173 14.385C206.056 14.805 205.834 15.4234 205.508 16.24L205.578 16.345C206.488 14.8517 207.339 13.6617 208.133 12.775C208.926 11.865 209.731 11.2 210.548 10.78C211.364 10.36 212.263 10.15 213.243 10.15C213.873 10.15 214.479 10.2317 215.063 10.395C215.646 10.5584 216.124 10.85 216.498 11.27C216.871 11.69 217.058 12.285 217.058 13.055C217.058 13.6384 216.918 14.3967 216.638 15.33C216.381 16.2634 215.938 17.6634 215.308 19.53C214.911 20.6967 214.584 21.6534 214.328 22.4C214.094 23.1234 213.908 23.695 213.768 24.115C213.628 24.535 213.534 24.8617 213.488 25.095C213.441 25.305 213.418 25.4917 213.418 25.655C213.418 26.0984 213.581 26.32 213.908 26.32C214.094 26.32 214.304 26.2384 214.538 26.075C214.771 25.9117 215.109 25.5967 215.553 25.13C215.996 24.6634 216.579 23.975 217.303 23.065L218.598 23.765C218.201 24.535 217.723 25.27 217.163 25.97C216.603 26.6467 215.996 27.2417 215.343 27.755C214.713 28.2684 214.059 28.6767 213.383 28.98C212.706 29.26 212.029 29.4 211.353 29.4C210.489 29.4 209.778 29.1434 209.218 28.63C208.681 28.1167 208.413 27.3934 208.413 26.46C208.413 26.2034 208.436 25.9234 208.483 25.62C208.553 25.2934 208.658 24.8734 208.798 24.36C208.961 23.8467 209.171 23.1817 209.428 22.365C209.708 21.5484 210.069 20.5217 210.513 19.285ZM225.605 29.05L225.99 27.65C227.04 27.6034 227.845 27.4867 228.405 27.3C228.988 27.09 229.443 26.705 229.77 26.145C230.096 25.585 230.411 24.7567 230.715 23.66L235.125 7.49005C235.265 6.97671 235.358 6.53338 235.405 6.16005C235.451 5.78671 235.475 5.48338 235.475 5.25005C235.475 4.57338 235.276 4.13005 234.88 3.92005C234.506 3.68671 233.83 3.54671 232.85 3.50005L233.2 2.10005H252.835L252.905 9.31005H251.05C250.676 7.91005 250.256 6.82505 249.79 6.05505C249.323 5.26171 248.693 4.71338 247.9 4.41005C247.106 4.10671 246.033 3.95505 244.68 3.95505H241.075L238.345 13.965L240.585 13.93C241.635 13.9067 242.428 13.7784 242.965 13.545C243.501 13.2884 243.933 12.8684 244.26 12.285C244.586 11.6784 244.948 10.8617 245.345 9.83505H246.99L244.75 20.86H243.105C243.175 20.44 243.21 19.9267 243.21 19.32C243.21 18.2234 243.023 17.36 242.65 16.73C242.3 16.0767 241.553 15.75 240.41 15.75H237.855L235.895 23.135C235.825 23.3917 235.743 23.765 235.65 24.255C235.58 24.7217 235.545 25.165 235.545 25.585C235.545 26.4717 235.79 27.0434 236.28 27.3C236.77 27.5334 237.575 27.65 238.695 27.65L238.31 29.05H225.605ZM252.769 16.17L251.334 15.575C251.614 14.9684 251.999 14.35 252.489 13.72C252.979 13.09 253.527 12.5067 254.134 11.97C254.764 11.4334 255.417 11.0017 256.094 10.675C256.77 10.325 257.435 10.15 258.089 10.15C258.742 10.15 259.22 10.3717 259.524 10.815C259.85 11.235 260.014 11.9234 260.014 12.88C260.014 13.5334 259.932 14.28 259.769 15.12L259.874 15.225C260.317 14.245 260.912 13.3467 261.659 12.53C262.405 11.7134 263.21 11.06 264.074 10.57C264.96 10.0567 265.8 9.80005 266.594 9.80005C267.41 9.80005 268.075 10.045 268.589 10.535C269.102 11.0017 269.359 11.6084 269.359 12.355C269.359 13.0084 269.137 13.5567 268.694 14C268.274 14.4434 267.725 14.665 267.049 14.665C266.512 14.665 266.092 14.5484 265.789 14.315C265.485 14.0584 265.217 13.8134 264.984 13.58C264.75 13.3234 264.47 13.195 264.144 13.195C263.584 13.195 262.954 13.6734 262.254 14.63C261.554 15.5867 260.83 16.8934 260.084 18.55C259.337 20.2067 258.614 22.0967 257.914 24.22L256.339 29.05H251.684L253.959 21.805C254.495 20.0784 254.927 18.7134 255.254 17.71C255.604 16.7067 255.849 15.9367 255.989 15.4C256.152 14.84 256.234 14.4084 256.234 14.105C256.234 13.8017 256.175 13.5917 256.059 13.475C255.942 13.335 255.814 13.265 255.674 13.265C255.44 13.265 255.125 13.4167 254.729 13.72C254.355 14 253.982 14.3617 253.609 14.805C253.259 15.2484 252.979 15.7034 252.769 16.17ZM275.384 29.4C274.147 29.4 273.015 29.12 271.989 28.56C270.962 28 270.145 27.195 269.539 26.145C268.932 25.095 268.629 23.835 268.629 22.365C268.629 20.8484 268.932 19.3667 269.539 17.92C270.169 16.45 271.009 15.1317 272.059 13.965C273.109 12.7984 274.299 11.8767 275.629 11.2C276.959 10.5 278.324 10.15 279.724 10.15C281.054 10.15 282.232 10.43 283.259 10.99C284.285 11.55 285.09 12.3317 285.674 13.335C286.257 14.3384 286.549 15.5167 286.549 16.87C286.549 18.34 286.234 19.8217 285.604 21.315C284.974 22.785 284.122 24.1267 283.049 25.34C281.975 26.5534 280.774 27.5334 279.444 28.28C278.137 29.0267 276.784 29.4 275.384 29.4ZM275.594 27.3C276.2 27.3 276.795 27.0434 277.379 26.53C277.962 26.0167 278.522 25.3284 279.059 24.465C279.595 23.6017 280.062 22.645 280.459 21.595C280.879 20.5217 281.205 19.425 281.439 18.305C281.672 17.1617 281.789 16.0767 281.789 15.05C281.789 13.9534 281.602 13.195 281.229 12.775C280.855 12.355 280.354 12.145 279.724 12.145C279.117 12.145 278.522 12.4017 277.939 12.915C277.379 13.405 276.842 14.07 276.329 14.91C275.815 15.7267 275.36 16.66 274.964 17.71C274.567 18.7367 274.252 19.81 274.019 20.93C273.809 22.0267 273.704 23.0767 273.704 24.08C273.704 25.2467 273.879 26.075 274.229 26.565C274.602 27.055 275.057 27.3 275.594 27.3ZM302.939 12.32C302.565 12.32 302.134 12.4717 301.644 12.775C301.177 13.0784 300.652 13.5917 300.069 14.315C299.509 15.0384 298.902 16.03 298.249 17.29C297.595 18.55 296.919 20.1367 296.219 22.05L293.629 29.05H289.149L291.739 21.035C292.322 19.215 292.765 17.815 293.069 16.835C293.395 15.855 293.617 15.1317 293.734 14.665C293.85 14.175 293.909 13.8017 293.909 13.545C293.909 12.915 293.687 12.6 293.244 12.6C292.917 12.6 292.532 12.8567 292.089 13.37C291.645 13.8834 291.214 14.5367 290.794 15.33C290.374 16.1234 290.024 16.9634 289.744 17.85L288.309 17.185C289.195 14.735 290.152 12.95 291.179 11.83C292.205 10.71 293.407 10.15 294.784 10.15C295.6 10.15 296.16 10.36 296.464 10.78C296.767 11.2 296.919 11.865 296.919 12.775C296.919 13.3584 296.872 13.9417 296.779 14.525C296.685 15.085 296.545 15.61 296.359 16.1L296.464 16.205C297.28 14.8284 298.074 13.6967 298.844 12.81C299.614 11.9234 300.454 11.2584 301.364 10.815C302.297 10.3717 303.37 10.15 304.584 10.15C305.867 10.15 306.835 10.395 307.489 10.885C308.142 11.375 308.469 12.11 308.469 13.09C308.469 13.4634 308.41 13.9184 308.294 14.455C308.177 14.9917 307.979 15.6917 307.699 16.555C307.419 17.4184 307.045 18.5267 306.579 19.88C306.065 21.3967 305.645 22.6567 305.319 23.66C304.992 24.64 304.829 25.3517 304.829 25.795C304.829 26.145 304.945 26.32 305.179 26.32C305.482 26.32 305.914 26.0634 306.474 25.55C307.034 25.0367 307.78 24.22 308.714 23.1L309.974 23.765C309.6 24.465 309.134 25.1534 308.574 25.83C308.014 26.4834 307.395 27.0784 306.719 27.615C306.065 28.1517 305.389 28.5834 304.689 28.91C303.989 29.2367 303.312 29.4 302.659 29.4C301.959 29.4 301.317 29.1784 300.734 28.735C300.174 28.2684 299.894 27.5217 299.894 26.495C299.894 26.145 299.929 25.7717 299.999 25.375C300.069 24.955 300.197 24.43 300.384 23.8C300.594 23.17 300.874 22.3534 301.224 21.35C301.574 20.3234 302.017 19.04 302.554 17.5C302.95 16.4034 303.242 15.54 303.429 14.91C303.639 14.28 303.744 13.7434 303.744 13.3C303.744 12.9967 303.685 12.7634 303.569 12.6C303.475 12.4134 303.265 12.32 302.939 12.32ZM315.403 29.4C314.189 29.4 313.349 29.225 312.883 28.875C312.439 28.5017 312.218 27.9184 312.218 27.125C312.218 26.6584 312.299 26.0284 312.463 25.235C312.626 24.4184 312.906 23.3334 313.303 21.98L315.893 13.405H313.233L313.793 11.445H316.488L318.203 5.77505H322.823L321.108 11.445H324.573L323.978 13.405H320.513L317.608 23.03C317.444 23.59 317.304 24.0684 317.188 24.465C317.094 24.8617 317.036 25.2234 317.013 25.55C317.013 25.76 317.059 25.9467 317.153 26.11C317.269 26.2734 317.456 26.355 317.713 26.355C318.133 26.355 318.564 26.215 319.008 25.935C319.474 25.655 319.918 25.305 320.338 24.885C320.781 24.465 321.166 24.0567 321.493 23.66C321.843 23.2634 322.099 22.9484 322.263 22.715L323.278 23.31C322.881 24.1034 322.368 24.8734 321.738 25.62C321.108 26.3434 320.408 26.9967 319.638 27.58C318.891 28.14 318.144 28.5834 317.398 28.91C316.674 29.2367 316.009 29.4 315.403 29.4ZM331.033 29.4C329.213 29.4 327.778 28.8984 326.728 27.895C325.701 26.8684 325.188 25.4334 325.188 23.59C325.188 22.3067 325.409 21.035 325.853 19.775C326.319 18.4917 326.949 17.2784 327.743 16.135C328.536 14.9684 329.446 13.9417 330.473 13.055C331.499 12.145 332.573 11.4334 333.693 10.92C334.836 10.4067 335.979 10.15 337.123 10.15C338.429 10.15 339.503 10.4534 340.343 11.06C341.206 11.6434 341.638 12.425 341.638 13.405C341.638 14.245 341.334 15.0967 340.728 15.96C340.121 16.8 339.281 17.605 338.208 18.375C337.158 19.145 335.944 19.845 334.568 20.475C333.191 21.0817 331.733 21.5834 330.193 21.98C330.146 22.2834 330.099 22.5984 330.053 22.925C330.029 23.2284 330.018 23.52 330.018 23.8C330.018 24.8734 330.216 25.7017 330.613 26.285C331.033 26.845 331.616 27.125 332.363 27.125C333.179 27.125 334.066 26.775 335.023 26.075C336.003 25.3517 336.866 24.3834 337.613 23.17L339.083 24.22C338.103 25.9 336.924 27.1834 335.548 28.07C334.171 28.9567 332.666 29.4 331.033 29.4ZM330.683 20.02C332.013 19.6234 333.191 19.0984 334.218 18.445C335.244 17.7917 336.049 17.0567 336.633 16.24C337.239 15.4 337.543 14.525 337.543 13.615C337.543 12.635 337.169 12.145 336.423 12.145C335.863 12.145 335.303 12.39 334.743 12.88C334.183 13.3467 333.634 13.9767 333.098 14.77C332.584 15.54 332.118 16.3917 331.698 17.325C331.278 18.235 330.939 19.1334 330.683 20.02ZM346.028 29.4C345.165 29.4 344.5 29.2134 344.033 28.84C343.567 28.4434 343.333 27.825 343.333 26.985C343.333 26.3784 343.438 25.7017 343.648 24.955C343.882 24.185 344.208 23.1934 344.628 21.98L346.203 17.5C346.53 16.5434 346.752 15.8667 346.868 15.47C347.008 15.05 347.078 14.6767 347.078 14.35C347.078 14.0467 347.032 13.8367 346.938 13.72C346.868 13.58 346.752 13.51 346.588 13.51C346.285 13.51 345.923 13.7084 345.503 14.105C345.083 14.5017 344.675 14.945 344.278 15.435C343.905 15.925 343.648 16.2984 343.508 16.555L342.318 15.82C342.645 15.2134 343.1 14.5834 343.683 13.93C344.267 13.2534 344.92 12.635 345.643 12.075C346.39 11.4917 347.16 11.025 347.953 10.675C348.747 10.325 349.505 10.15 350.228 10.15C350.952 10.15 351.5 10.3367 351.873 10.71C352.27 11.0834 352.468 11.655 352.468 12.425C352.468 12.8684 352.387 13.3817 352.223 13.965C352.083 14.525 351.85 15.2484 351.523 16.135C351.22 17.0217 350.8 18.1884 350.263 19.635L348.968 23.17C348.945 23.2634 348.875 23.4617 348.758 23.765C348.642 24.045 348.525 24.36 348.408 24.71C348.315 25.0367 348.268 25.3167 348.268 25.55C348.268 25.76 348.327 25.9467 348.443 26.11C348.56 26.2734 348.747 26.355 349.003 26.355C349.33 26.355 349.668 26.2267 350.018 25.97C350.392 25.7134 350.742 25.3867 351.068 24.99C351.418 24.5934 351.733 24.185 352.013 23.765C352.317 23.345 352.562 22.9717 352.748 22.645L353.973 23.38C353.623 24.0567 353.18 24.7567 352.643 25.48C352.13 26.18 351.523 26.8334 350.823 27.44C350.147 28.0234 349.4 28.5017 348.583 28.875C347.767 29.225 346.915 29.4 346.028 29.4ZM352.083 5.46005C351.36 5.46005 350.73 5.21505 350.193 4.72505C349.657 4.23505 349.388 3.59338 349.388 2.80005C349.388 2.03005 349.645 1.37671 350.158 0.840047C350.695 0.280047 351.337 4.73261e-05 352.083 4.73261e-05C352.9 4.73261e-05 353.565 0.280047 354.078 0.840047C354.592 1.37671 354.848 2.01838 354.848 2.76505C354.848 3.51171 354.568 4.15338 354.008 4.69005C353.472 5.20338 352.83 5.46005 352.083 5.46005ZM357.29 16.17L355.855 15.575C356.135 14.9684 356.52 14.35 357.01 13.72C357.5 13.09 358.048 12.5067 358.655 11.97C359.285 11.4334 359.938 11.0017 360.615 10.675C361.292 10.325 361.957 10.15 362.61 10.15C363.263 10.15 363.742 10.3717 364.045 10.815C364.372 11.235 364.535 11.9234 364.535 12.88C364.535 13.5334 364.453 14.28 364.29 15.12L364.395 15.225C364.838 14.245 365.433 13.3467 366.18 12.53C366.927 11.7134 367.732 11.06 368.595 10.57C369.482 10.0567 370.322 9.80005 371.115 9.80005C371.932 9.80005 372.597 10.045 373.11 10.535C373.623 11.0017 373.88 11.6084 373.88 12.355C373.88 13.0084 373.658 13.5567 373.215 14C372.795 14.4434 372.247 14.665 371.57 14.665C371.033 14.665 370.613 14.5484 370.31 14.315C370.007 14.0584 369.738 13.8134 369.505 13.58C369.272 13.3234 368.992 13.195 368.665 13.195C368.105 13.195 367.475 13.6734 366.775 14.63C366.075 15.5867 365.352 16.8934 364.605 18.55C363.858 20.2067 363.135 22.0967 362.435 24.22L360.86 29.05H356.205L358.48 21.805C359.017 20.0784 359.448 18.7134 359.775 17.71C360.125 16.7067 360.37 15.9367 360.51 15.4C360.673 14.84 360.755 14.4084 360.755 14.105C360.755 13.8017 360.697 13.5917 360.58 13.475C360.463 13.335 360.335 13.265 360.195 13.265C359.962 13.265 359.647 13.4167 359.25 13.72C358.877 14 358.503 14.3617 358.13 14.805C357.78 15.2484 357.5 15.7034 357.29 16.17ZM376.832 29.4C375.455 29.4 374.358 28.945 373.542 28.035C372.748 27.125 372.352 25.8884 372.352 24.325C372.352 23.0417 372.585 21.735 373.052 20.405C373.518 19.0517 374.148 17.7684 374.942 16.555C375.735 15.3417 376.633 14.2567 377.637 13.3C378.663 12.32 379.725 11.55 380.822 10.99C381.942 10.43 383.038 10.15 384.112 10.15C385.768 10.15 386.912 10.92 387.542 12.46L388.277 10.5H392.582L390.587 15.855C390.26 16.7184 389.945 17.64 389.642 18.62C389.338 19.5767 389.058 20.51 388.802 21.42C388.568 22.33 388.382 23.1467 388.242 23.87C388.102 24.5934 388.032 25.1417 388.032 25.515C388.032 26.1917 388.253 26.53 388.697 26.53C388.93 26.53 389.362 26.18 389.992 25.48C390.645 24.78 391.333 23.8467 392.057 22.68L393.247 23.625C392.267 25.445 391.217 26.8684 390.097 27.895C389 28.8984 387.728 29.4 386.282 29.4C385.512 29.4 384.858 29.2017 384.322 28.805C383.808 28.385 383.552 27.7084 383.552 26.775C383.552 26.565 383.563 26.32 383.587 26.04C383.61 25.7367 383.633 25.3634 383.657 24.92L383.517 24.885C383.05 25.7484 382.443 26.5184 381.697 27.195C380.973 27.8717 380.18 28.4084 379.317 28.805C378.477 29.2017 377.648 29.4 376.832 29.4ZM378.687 26.6C379.34 26.6 380.005 26.32 380.682 25.76C381.382 25.1767 382.047 24.43 382.677 23.52C383.33 22.5867 383.913 21.5717 384.427 20.475C384.94 19.355 385.348 18.2584 385.652 17.185C385.955 16.1117 386.107 15.1434 386.107 14.28C386.107 13.6734 385.978 13.195 385.722 12.845C385.465 12.495 385.115 12.32 384.672 12.32C383.995 12.32 383.295 12.5767 382.572 13.09C381.848 13.6034 381.16 14.2917 380.507 15.155C379.853 15.995 379.27 16.94 378.757 17.99C378.243 19.0167 377.835 20.0667 377.532 21.14C377.228 22.2134 377.077 23.2167 377.077 24.15C377.077 24.8034 377.217 25.375 377.497 25.865C377.8 26.355 378.197 26.6 378.687 26.6ZM396.533 15.54C396.533 14.49 396.825 13.5684 397.408 12.775C397.992 11.9584 398.785 11.3167 399.788 10.85C400.792 10.3834 401.912 10.15 403.148 10.15C404.618 10.15 405.738 10.4767 406.508 11.13C407.278 11.76 407.663 12.5184 407.663 13.405C407.663 13.9417 407.5 14.3617 407.173 14.665C406.87 14.945 406.485 15.085 406.018 15.085C405.458 15.085 405.05 14.9334 404.793 14.63C404.56 14.3034 404.373 13.9417 404.233 13.545C404.093 13.1484 403.93 12.7984 403.743 12.495C403.58 12.1684 403.288 12.005 402.868 12.005C402.378 12.005 401.97 12.2267 401.643 12.67C401.34 13.09 401.188 13.6034 401.188 14.21C401.188 14.7934 401.328 15.365 401.608 15.925C401.912 16.485 402.273 17.045 402.693 17.605C403.137 18.1417 403.568 18.7134 403.988 19.32C404.432 19.9267 404.793 20.5684 405.073 21.245C405.377 21.8984 405.528 22.61 405.528 23.38C405.528 24.57 405.178 25.62 404.478 26.53C403.778 27.44 402.868 28.1517 401.748 28.665C400.628 29.155 399.45 29.4 398.213 29.4C396.743 29.4 395.565 29.0734 394.678 28.42C393.815 27.7434 393.383 26.8567 393.383 25.76C393.383 25.0834 393.558 24.5584 393.908 24.185C394.258 23.7884 394.713 23.59 395.273 23.59C396.323 23.59 396.918 24.2667 397.058 25.62C397.128 26.3667 397.268 26.8684 397.478 27.125C397.712 27.3817 398.05 27.51 398.493 27.51C399.287 27.51 399.905 27.265 400.348 26.775C400.792 26.2617 401.013 25.5734 401.013 24.71C401.013 24.01 400.862 23.3684 400.558 22.785C400.255 22.1784 399.882 21.6067 399.438 21.07C398.995 20.5334 398.552 19.985 398.108 19.425C397.665 18.865 397.292 18.27 396.988 17.64C396.685 17.01 396.533 16.31 396.533 15.54Z" fill="#107966"/>
</svg>
