<svg width="20" height="33" viewBox="0 0 20 33" fill="none" xmlns="http://www.w3.org/2000/svg">
<path d="M0.923793 0.906974C0.332258 1.48846 0 2.27669 0 3.09853C0 3.92037 0.332258 4.7086 0.923793 5.29008L12.3796 16.5373L0.923793 27.7845C0.365827 28.3724 0.0620673 29.15 0.0765059 29.9534C0.0909445 30.7569 0.422455 31.5235 1.0012 32.0917C1.57994 32.6599 2.36072 32.9853 3.17906 32.9995C3.9974 33.0137 4.7894 32.7155 5.38819 32.1677L19.0762 18.7289C19.6677 18.1474 20 17.3591 20 16.5373C20 15.7155 19.6677 14.9272 19.0762 14.3458L5.38819 0.906974C4.79592 0.326209 3.99307 0 3.15599 0C2.31892 0 1.51606 0.326209 0.923793 0.906974Z" fill="#107966"/>
</svg>
