<svg width="119" height="89" viewBox="0 0 119 89" fill="none" xmlns="http://www.w3.org/2000/svg">
<path d="M65.8665 38.0328C69.4808 32.997 71.4241 26.9595 71.4241 20.7668C71.4241 14.5741 69.4808 8.5367 65.8665 3.50088C69.2508 1.2019 73.2551 -0.018775 77.35 0.000218325C82.8731 0.000218325 88.1701 2.18812 92.0755 6.08262C95.9809 9.97712 98.175 15.2592 98.175 20.7668C98.175 26.2745 95.9809 31.5566 92.0755 35.451C88.1701 39.3455 82.8731 41.5334 77.35 41.5334C73.2551 41.5524 69.2508 40.3318 65.8665 38.0328ZM20.825 20.7668C20.825 16.6596 22.0464 12.6446 24.3346 9.22952C26.6229 5.81447 29.8753 3.15276 33.6806 1.58098C37.4859 0.00920784 41.6731 -0.40204 45.7128 0.399244C49.7524 1.20053 53.4631 3.17836 56.3755 6.08262C59.2879 8.98688 61.2713 12.6871 62.0749 16.7155C62.8784 20.7438 62.466 24.9193 60.8898 28.7139C59.3136 32.5085 56.6444 35.7518 53.2197 38.0336C49.7951 40.3155 45.7688 41.5334 41.65 41.5334C36.1269 41.5334 30.8299 39.3455 26.9245 35.451C23.0191 31.5566 20.825 26.2745 20.825 20.7668ZM32.725 20.7668C32.725 22.5271 33.2484 24.2478 34.2291 25.7114C35.2098 27.175 36.6037 28.3157 38.2346 28.9893C39.8654 29.663 41.6599 29.8392 43.3912 29.4958C45.1225 29.1524 46.7127 28.3048 47.9609 27.0601C49.2091 25.8154 50.0591 24.2296 50.4035 22.5031C50.7479 20.7767 50.5711 18.9872 49.8956 17.361C49.2201 15.7347 48.0762 14.3447 46.6085 13.3668C45.1408 12.3888 43.4152 11.8669 41.65 11.8669C39.2829 11.8669 37.0128 12.8045 35.3391 14.4736C33.6653 16.1427 32.725 18.4064 32.725 20.7668ZM83.3 77.1334V89H0V77.1334C0 77.1334 0 53.4001 41.65 53.4001C83.3 53.4001 83.3 77.1334 83.3 77.1334ZM71.4 77.1334C70.567 72.5054 63.4865 65.2667 41.65 65.2667C19.8135 65.2667 12.3165 73.0394 11.9 77.1334M83.0025 53.4001C86.6493 56.2287 89.631 59.8191 91.7382 63.9191C93.8453 68.0191 95.0269 72.5295 95.2 77.1334V89H119V77.1334C119 77.1334 119 55.5954 82.943 53.4001H83.0025Z" fill="#107966"/>
</svg>
