<svg width="65" height="65" viewBox="0 0 65 65" fill="none" xmlns="http://www.w3.org/2000/svg">
<g clip-path="url(#clip0_2385_401)">
<path d="M44.6875 28.4375C44.6875 35.1812 39.2437 40.625 32.5 40.625C25.7562 40.625 20.3125 35.1812 20.3125 28.4375C20.3125 21.6937 25.7562 16.25 32.5 16.25C39.2437 16.25 44.6875 21.6937 44.6875 28.4375Z" fill="#0D5044"/>
<path fill-rule="evenodd" clip-rule="evenodd" d="M65 32.5C65 50.4562 50.4562 65 32.5 65C14.5437 65 0 50.4562 0 32.5C0 14.5437 14.5437 0 32.5 0C50.4562 0 65 14.5437 65 32.5ZM16.25 55.8594C16.9 54.7788 23.1969 44.6875 32.4594 44.6875C41.6812 44.6875 48.0187 54.8031 48.6687 55.8594C52.4463 53.2471 55.5329 49.7564 57.6629 45.6874C59.793 41.6183 60.9028 37.0928 60.8969 32.5C60.8969 16.7781 48.1812 4.0625 32.4594 4.0625C16.7375 4.0625 4.02187 16.7781 4.02187 32.5C4.02187 42.1688 8.85625 50.7406 16.25 55.8594Z" fill="#0D5044"/>
</g>
<defs>
<clipPath id="clip0_2385_401">
<rect width="65" height="65" fill="white"/>
</clipPath>
</defs>
</svg>
