<svg width="48" height="48" viewBox="0 0 48 48" fill="none" xmlns="http://www.w3.org/2000/svg">
<path d="M23.8326 0C36.9954 0 47.6653 10.6699 47.6653 23.8326C47.6653 36.9954 36.9954 47.6652 23.8326 47.6652C19.7763 47.671 15.7861 46.6371 12.2428 44.6623L11.5159 44.2381L4.28989 46.364C3.89666 46.4799 3.48035 46.4934 3.08042 46.4033C2.6805 46.3132 2.31021 46.1224 2.00467 45.8491C1.69913 45.5758 1.46845 45.229 1.33451 44.8415C1.20057 44.454 1.1678 44.0388 1.23932 43.6351L1.30128 43.3754L3.42715 36.1493C1.17986 32.4344 -0.00551115 28.1743 1.92635e-05 23.8326C1.92635e-05 10.6699 10.6699 0 23.8326 0ZM23.8326 4.76652C20.4189 4.7659 17.0676 5.68183 14.1288 7.41865C11.1899 9.15548 8.77127 11.6495 7.12541 14.6402C5.47954 17.631 4.66684 21.0088 4.77216 24.4209C4.87749 27.833 5.89698 31.1542 7.72417 34.0377C8.19606 34.7813 8.39863 35.6965 8.23896 36.6045L8.14601 36.993L7.09499 40.5703L10.6723 39.5193C11.7042 39.2142 12.7767 39.4001 13.6275 39.9411C16.126 41.5231 18.9581 42.5022 21.9002 42.8011C24.8422 43.1 27.8134 42.7104 30.579 41.6632C33.3445 40.616 35.8285 38.9398 37.8347 36.7673C39.8409 34.5947 41.3142 31.9852 42.1382 29.1452C42.9622 26.3051 43.1142 23.3123 42.5823 20.4034C42.0505 17.4944 40.8492 14.7491 39.0736 12.3843C37.2979 10.0196 34.9966 8.10031 32.3514 6.77819C29.7062 5.45607 26.7898 4.76737 23.8326 4.76652ZM16.9259 12.3548C17.1901 12.2417 17.4789 12.1988 17.7645 12.2301C18.0501 12.2614 18.3228 12.3659 18.5561 12.5336C19.7573 13.4106 20.7106 14.5879 21.5304 15.7367L22.3097 16.8663L22.6744 17.4026C22.8855 17.7099 22.9893 18.0784 22.9694 18.4508C22.9496 18.8231 22.8074 19.1785 22.5647 19.4617L22.386 19.6428L20.1839 21.2778C20.0791 21.3555 20.0054 21.468 19.9762 21.5951C19.9469 21.7222 19.9639 21.8556 20.0242 21.9713C20.5247 22.8769 21.4089 24.2282 22.4241 25.2435C23.4418 26.2588 24.8551 27.2026 25.8227 27.7579C26.0324 27.877 26.285 27.8389 26.4566 27.684L26.5472 27.5767L27.9795 25.396C28.2421 25.0452 28.6305 24.81 29.063 24.7398C29.4955 24.6695 29.9384 24.7698 30.2984 25.0195L31.5925 25.9227C32.8795 26.8403 34.1164 27.827 35.0959 29.0782C35.2772 29.3133 35.3924 29.5926 35.4297 29.8871C35.4669 30.1816 35.425 30.4807 35.308 30.7536C34.3643 32.9557 31.9739 34.8314 29.4905 34.7408L29.1116 34.717L28.6564 34.6741L28.399 34.6407L27.8318 34.5454C25.6296 34.1307 22.1 32.8819 18.4417 29.2259C14.7858 25.5676 13.5369 22.038 13.1223 19.8359L13.0269 19.2687L12.9673 18.773L12.9364 18.3559L12.9268 18.1771C12.8363 15.689 14.7214 13.2986 16.9259 12.3548Z" fill="white"/>
</svg>
